<?xml version="1.0" encoding="UTF-8"?>
<svg version="1.1" xmlns="http://www.w3.org/2000/svg" width="385" height="385">
<path d="M0 0 C0.99 0.66 1.98 1.32 3 2 C3 2.66 3 3.32 3 4 C3.66 4 4.32 4 5 4 C6.60634015 5.73391951 8.1375287 7.538091 9.625 9.375 C10.44226563 10.37273438 11.25953125 11.37046875 12.1015625 12.3984375 C14 15 14 15 14 17 C14.66 17 15.32 17 16 17 C17.76227978 19.09063618 19.42107833 21.19240421 21.0625 23.375 C25.13477773 28.68334954 29.36563481 33.72266002 33.89453125 38.65234375 C36.67748576 41.75541548 39.24134172 45.0083393 41.8203125 48.28125 C44.85464793 52.06601247 47.99583603 55.75634949 51.14404297 59.4465332 C59 68.66619279 59 68.66619279 59 71 C59.66 71 60.32 71 61 71 C62.7265625 72.8984375 62.7265625 72.8984375 64.625 75.375 C65.25664062 76.18710938 65.88828125 76.99921875 66.5390625 77.8359375 C68 80 68 80 68 82 C68.66 82 69.32 82 70 82 C71.83984375 83.9765625 71.83984375 83.9765625 73.9375 86.625 C74.62714844 87.48351562 75.31679687 88.34203125 76.02734375 89.2265625 C80.2880417 95.21685071 82.01825371 101.27607659 83.69921875 108.32421875 C84.05908623 109.79904472 84.05908623 109.79904472 84.42622375 111.30366516 C84.9295876 113.37291742 85.42945585 115.44302279 85.92602539 117.51391602 C86.68787697 120.6890711 87.46119501 123.86126712 88.23632812 127.03320312 C88.72463243 129.04671164 89.2122854 131.06037825 89.69921875 133.07421875 C89.93041916 134.02423264 90.16161957 134.97424652 90.39982605 135.95304871 C90.61037125 136.8343898 90.82091644 137.7157309 91.0378418 138.6237793 C91.224207 139.3984404 91.4105722 140.1731015 91.60258484 140.97123718 C92 143 92 143 92 146 C88.20581962 145.8059504 84.41792615 145.58213306 80.62890625 145.3046875 C77.6513467 145.08820597 74.69965344 144.97423107 71.71484375 144.9453125 C59.77059942 144.55533023 53.45393099 139.61738606 44.86376953 131.68212891 C42.09546159 129.18361676 39.16238514 126.93236017 36.1875 124.6875 C34.640625 123.50220703 34.640625 123.50220703 33.0625 122.29296875 C29.08144002 119.31225165 25.03073996 116.4350943 20.94921875 113.59375 C20.30597656 113.0678125 19.66273438 112.541875 19 112 C19 111.34 19 110.68 19 110 C18.29875 109.77183594 17.5975 109.54367188 16.875 109.30859375 C13.42344257 107.73757236 10.81930473 105.54191393 8 103.0625 C5.15054651 100.57826834 2.39792047 98.23410267 -0.875 96.30859375 C-1.57625 95.87675781 -2.2775 95.44492188 -3 95 C-3 94.34 -3 93.68 -3 93 C-3.556875 92.731875 -4.11375 92.46375 -4.6875 92.1875 C-7.1861791 90.90439451 -9.59141289 89.44515227 -12 88 C-12.33 133.87 -12.66 179.74 -13 227 C-11.35 227.66 -9.7 228.32 -8 229 C-6.3719757 230.23486197 -4.79204147 231.53430789 -3.25 232.875 C2.41058009 237.6503865 8.38386127 241.85993969 14.51269531 246.01318359 C15.22393555 246.50254395 15.93517578 246.9919043 16.66796875 247.49609375 C17.31016357 247.93107178 17.9523584 248.3660498 18.61401367 248.81420898 C19.07138916 249.20552002 19.52876465 249.59683105 20 250 C20 250.66 20 251.32 20 252 C20.721875 252.24878906 21.44375 252.49757813 22.1875 252.75390625 C25.2689507 254.1191601 27.42267997 255.77496741 30 257.9375 C32.55191029 260.07073751 34.93082066 261.95993363 37.8125 263.62890625 C38.8953125 264.30759766 38.8953125 264.30759766 40 265 C40 265.66 40 266.32 40 267 C40.99 267.33 41.98 267.66 43 268 C43 269.32 43 270.64 43 272 C37.6625257 274.92950772 32.31605421 277.83752502 26.92822266 280.67358398 C18.22860319 285.26367565 9.69924755 290.13399281 1.171875 295.03515625 C-3.43070508 297.67968089 -8.05433954 300.28453561 -12.6875 302.875 C-17.68114195 305.66966353 -22.6134101 308.54662901 -27.50317383 311.51928711 C-29.95480998 312.9732006 -32.43406616 314.34780603 -34.94140625 315.703125 C-41.52682262 319.27951181 -48.07650884 322.91908141 -54.625 326.5625 C-55.79945652 327.21553552 -56.97393561 327.86853045 -58.1484375 328.52148438 C-59.28796875 329.15505859 -60.4275 329.78863281 -61.6015625 330.44140625 C-62.6937207 331.04742676 -63.78587891 331.65344727 -64.91113281 332.27783203 C-66.86845422 333.36911762 -68.82150538 334.46812767 -70.76855469 335.57763672 C-71.57454102 336.03541504 -72.38052734 336.49319336 -73.2109375 336.96484375 C-73.9023584 337.36179443 -74.5937793 337.75874512 -75.30615234 338.16772461 C-77 339 -77 339 -79 339 C-79.16015537 301.75871475 -79.28353362 264.51748129 -79.35745731 227.27592145 C-79.36621245 222.88113132 -79.37527269 218.48634186 -79.38452148 214.09155273 C-79.38727574 212.77914487 -79.38727574 212.77914487 -79.39008565 211.44022372 C-79.42056076 197.26563693 -79.47576142 183.09124848 -79.54006957 168.91677944 C-79.60548632 154.37689811 -79.64440213 139.83712079 -79.65861946 125.29709834 C-79.66823357 116.32202725 -79.69861841 107.34751673 -79.75541527 98.37261816 C-79.79236304 92.22160225 -79.80361309 86.07087693 -79.79450964 79.91975806 C-79.79001734 76.36846164 -79.7969935 72.81814594 -79.83443832 69.26702309 C-79.87471594 65.41921182 -79.86094858 61.57268511 -79.84178162 57.72468567 C-79.86217151 56.59920203 -79.8825614 55.47371838 -79.90356916 54.31412917 C-79.80377494 46.93489115 -79.80377494 46.93489115 -77.46799481 44.21808565 C-75.69299421 42.92522995 -73.98273233 41.93474888 -72 41 C-70.83597656 40.31744141 -70.83597656 40.31744141 -69.6484375 39.62109375 C-68.52308594 39.03521484 -68.52308594 39.03521484 -67.375 38.4375 C-61.81989471 35.46918138 -56.34294966 32.37587734 -50.875 29.25 C-49.97394531 28.73590576 -49.07289062 28.22181152 -48.14453125 27.69213867 C-43.72957242 25.16542498 -39.33257717 22.61414686 -34.96875 20 C-33.80303467 19.30342285 -33.80303467 19.30342285 -32.61376953 18.59277344 C-31.15284313 17.71653623 -29.69530302 16.83462098 -28.24169922 15.94628906 C-23.32999897 13 -23.32999897 13 -20 13 C-20 12.34 -20 11.68 -20 11 C-19.31035156 10.62488281 -18.62070313 10.24976563 -17.91015625 9.86328125 C-11.92430667 6.6034976 -5.95192711 3.32132229 0 0 Z " fill="#523DEF" transform="translate(128,44)"/>
<path d="M0 0 C1.32 0.33 2.64 0.66 4 1 C4 1.66 4 2.32 4 3 C5.06347656 3.35191406 5.06347656 3.35191406 6.1484375 3.7109375 C9.52342943 5.23661878 11.83271764 7.19398328 14.625 9.625 C20.20363945 14.41295234 25.98771702 18.76299743 32 23 C34.96806287 21.62219267 37.43262766 20.01508524 40.00390625 17.99609375 C40.74447266 17.42052734 41.48503906 16.84496094 42.24804688 16.25195312 C43.79533171 15.03893405 45.3422046 13.82538933 46.88867188 12.61132812 C47.62794922 12.03705078 48.36722656 11.46277344 49.12890625 10.87109375 C49.79994385 10.34443115 50.47098145 9.81776855 51.16235352 9.27514648 C53 8 53 8 56 7 C56 6.34 56 5.68 56 5 C60.38461538 2 60.38461538 2 63 2 C63 57.11 63 112.22 63 169 C56.07 172.96 49.14 176.92 42 181 C29.35687975 188.38055474 29.35687975 188.38055474 16.8828125 196.0390625 C15 197 15 197 12 197 C12 197.66 12 198.32 12 199 C9.38866262 200.42436585 6.777076 201.84824096 4.1640625 203.26953125 C2.09112406 204.40324943 0.02318269 205.54616392 -2.0390625 206.69921875 C-2.99554688 207.23160156 -3.95203125 207.76398438 -4.9375 208.3125 C-5.81277344 208.80363281 -6.68804687 209.29476562 -7.58984375 209.80078125 C-9.75489078 210.87804128 -11.63848674 211.53427233 -14 212 C-15.33927721 210.54712339 -16.67126847 209.08752741 -18 207.625 C-18.7425 206.81289063 -19.485 206.00078125 -20.25 205.1640625 C-22 203 -22 203 -22 201 C-22.66 201 -23.32 201 -24 201 C-25.55859375 199.26953125 -25.55859375 199.26953125 -27.4375 196.8125 C-30.64966811 192.69582246 -33.92887365 188.66276593 -37.3125 184.6875 C-37.77132568 184.14794678 -38.23015137 183.60839355 -38.70288086 183.05249023 C-39.64881493 181.94052239 -40.59502592 180.82879007 -41.54150391 179.71728516 C-43.04703068 177.94462441 -44.54585439 176.1664883 -46.04296875 174.38671875 C-46.53821045 173.79866455 -47.03345215 173.21061035 -47.54370117 172.60473633 C-48.49142419 171.47906699 -49.4382496 170.35264111 -50.3840332 169.2253418 C-52.12960511 167.15543812 -53.85905552 165.13547681 -55.8125 163.2578125 C-57 162 -57 162 -57 160 C-57.66 160 -58.32 160 -59 160 C-60.31153763 158.53190495 -61.54994075 156.99804216 -62.75 155.4375 C-65.47942277 151.87533181 -65.47942277 151.87533181 -68.39697266 148.46948242 C-72.84057596 143.58874415 -75.81978278 138.26407808 -78.875 132.4375 C-79.92850484 130.4642119 -80.98319153 128.4915543 -82.0390625 126.51953125 C-82.54598633 125.56900879 -83.05291016 124.61848633 -83.57519531 123.63916016 C-85.40000219 120.25907751 -87.31382258 116.9425214 -89.25 113.625 C-92.40643097 108.15516 -95.27562933 102.58666837 -98.05151367 96.91772461 C-99.66234995 93.63624278 -101.3100326 90.39451491 -103.09375 87.203125 C-103.4249585 86.60894775 -103.75616699 86.01477051 -104.09741211 85.40258789 C-105.00574235 83.78836579 -105.92630275 82.18104312 -106.84765625 80.57421875 C-108 78 -108 78 -107 75 C-97.25226902 75.46454482 -87.86320844 76.68868082 -78.28417969 78.47412109 C-76.10801284 78.87815388 -73.9293496 79.26588932 -71.75 79.65234375 C-53.48742696 82.95408931 -53.48742696 82.95408931 -47.3125 89.0625 C-42.8219434 93.3358846 -38.11005751 97.07188383 -33.11450195 100.72485352 C-31.70881829 101.77218832 -30.34942832 102.88111664 -29 104 C-29 104.66 -29 105.32 -29 106 C-28.46503906 106.22558594 -27.93007812 106.45117188 -27.37890625 106.68359375 C-24.22964806 108.42628671 -21.63906191 110.71120062 -18.9375 113.0625 C-14.76058533 116.66911532 -10.53841944 120.20991476 -6.26391602 123.70092773 C-5.27706314 124.50723129 -4.29021027 125.31353485 -3.27345276 126.14427185 C-2.14809364 127.06285728 -2.14809364 127.06285728 -1 128 C-1.00092179 127.37069989 -1.00184359 126.74139978 -1.00279331 126.09302998 C-1.02488165 110.77783386 -1.04142773 95.46264329 -1.05181217 80.14743519 C-1.05696754 72.74110657 -1.0639958 65.33478859 -1.07543945 57.9284668 C-1.08540946 51.47280978 -1.09185896 45.01716046 -1.09408849 38.56149596 C-1.09539166 35.14357054 -1.09845262 31.72566715 -1.10573006 28.30774879 C-1.11297095 24.49136667 -1.11398964 20.67503045 -1.11352539 16.85864258 C-1.11712067 15.72647812 -1.12071594 14.59431366 -1.12442017 13.42784119 C-1.1230455 12.38602692 -1.12167084 11.34421265 -1.12025452 10.27082825 C-1.12117631 9.36839292 -1.1220981 8.46595758 -1.12304783 7.53617573 C-0.9968767 4.93562471 -0.57538619 2.53595574 0 0 Z " fill="#4F3AED" transform="translate(272,119)"/>
<path d="M0 0 C2.3828125 -0.29296875 2.3828125 -0.29296875 5.125 -0.1875 C6.03507812 -0.16042969 6.94515625 -0.13335937 7.8828125 -0.10546875 C8.58148438 -0.07066406 9.28015625 -0.03585937 10 0 C10.19634033 0.62455078 10.39268066 1.24910156 10.5949707 1.89257812 C11.4985706 4.76243052 12.4055119 7.6312167 13.3125 10.5 C13.7755957 11.97339844 13.7755957 11.97339844 14.24804688 13.4765625 C16.01361179 19.05203064 17.8896177 24.54547343 20 30 C20.46374023 29.66154053 20.92748047 29.32308105 21.40527344 28.97436523 C23.5109225 27.44879566 25.63004033 25.9431115 27.75 24.4375 C28.47960937 23.90447266 29.20921875 23.37144531 29.9609375 22.82226562 C30.66992188 22.32275391 31.37890625 21.82324219 32.109375 21.30859375 C32.75874023 20.84251709 33.40810547 20.37644043 34.07714844 19.89624023 C36 19 36 19 38.09863281 19.24243164 C40.80156487 20.31937029 42.23187565 21.70798696 44 24 C43.59824752 27.04412255 42.42534548 29.1602522 40.71484375 31.671875 C40.26689453 32.33574219 39.81894531 32.99960937 39.35742188 33.68359375 C38.88884766 34.36550781 38.42027344 35.04742187 37.9375 35.75 C37.46505859 36.44738281 36.99261719 37.14476562 36.50585938 37.86328125 C35.34242719 39.57904993 34.17190026 41.29000398 33 43 C33.98226562 43.24907104 33.98226562 43.24907104 34.984375 43.50317383 C37.99078531 44.26831162 40.99538248 45.04035346 44 45.8125 C45.02996094 46.07353516 46.05992187 46.33457031 47.12109375 46.60351562 C52.90605833 48.09581541 58.45246717 49.77965333 64 52 C64 55.96 64 59.92 64 64 C63.13197754 64.23710693 62.26395508 64.47421387 61.36962891 64.71850586 C58.15253268 65.59834567 54.93596047 66.48005265 51.71972656 67.36303711 C50.3270289 67.74497389 48.93412597 68.126163 47.54101562 68.5065918 C45.53982103 69.05321439 43.53937755 69.60251251 41.5390625 70.15234375 C40.33459473 70.48226318 39.13012695 70.81218262 37.88916016 71.15209961 C35.09125845 71.88051868 35.09125845 71.88051868 33 73 C33.5053125 73.69867188 34.010625 74.39734375 34.53125 75.1171875 C35.1809375 76.02726562 35.830625 76.93734375 36.5 77.875 C37.47453125 79.23238281 37.47453125 79.23238281 38.46875 80.6171875 C40 83 40 83 40 85 C40.66 85 41.32 85 42 85 C44 88 44 88 44 92 C43.34 92 42.68 92 42 92 C42 92.66 42 93.32 42 94 C41.34 94 40.68 94 40 94 C40 94.66 40 95.32 40 96 C36.28400809 96.20086443 35.22791555 96.1519437 32 94 C32 93.34 32 92.68 32 92 C30.02 91.34 28.04 90.68 26 90 C26 89.34 26 88.68 26 88 C23.69 87.34 21.38 86.68 19 86 C18.67386719 87.18335937 18.34773438 88.36671875 18.01171875 89.5859375 C11.59860143 112.80279714 11.59860143 112.80279714 10 116 C6.37 116 2.74 116 -1 116 C-3.08709356 110.03687554 -4.75089399 104.0915486 -6.23828125 97.953125 C-7.28704999 93.88712927 -8.61319635 89.96229616 -10 86 C-14.7571899 88.15613643 -18.80953513 91.37325481 -23.02734375 94.41796875 C-26 96 -26 96 -28.69140625 95.86328125 C-31 95 -31 95 -34 93 C-34.1875 89.875 -34.1875 89.875 -34 87 C-33.34 87 -32.68 87 -32 87 C-31.73445313 86.27425781 -31.46890625 85.54851562 -31.1953125 84.80078125 C-29.99927052 81.99829072 -28.59670893 79.69520648 -26.875 77.1875 C-26.33617187 76.39730469 -25.79734375 75.60710937 -25.2421875 74.79296875 C-24.83226562 74.20128906 -24.42234375 73.60960938 -24 73 C-30.79109637 70.66139081 -37.62608694 68.67169741 -44.5625 66.8125 C-45.57119141 66.53986328 -46.57988281 66.26722656 -47.61914062 65.98632812 C-50.07879431 65.32187192 -52.53930855 64.66060266 -55 64 C-55 60.04 -55 56.08 -55 52 C-48.47190725 49.27996135 -41.7588238 47.61696724 -34.90234375 45.96484375 C-31.23630224 45.07696716 -27.62008032 44.05919125 -24 43 C-25.0828125 41.46279297 -25.0828125 41.46279297 -26.1875 39.89453125 C-27.12560864 38.53427372 -28.06307519 37.17357321 -29 35.8125 C-29.47695313 35.13896484 -29.95390625 34.46542969 -30.4453125 33.77148438 C-33.89373454 28.72200924 -33.89373454 28.72200924 -34.41796875 25.16015625 C-33.80873891 22.01151978 -32.59536526 20.82377018 -30 19 C-25.56501986 19.30118711 -22.96593654 21.21713293 -19.5 23.875 C-16.09147332 26.46969306 -12.71381715 28.86051838 -9 31 C-8.89558594 29.89269531 -8.79117188 28.78539062 -8.68359375 27.64453125 C-8.03683742 22.48525709 -6.58845116 17.64592642 -5.0625 12.6875 C-4.79759766 11.79482422 -4.53269531 10.90214844 -4.25976562 9.98242188 C-3.11993441 6.22352441 -2.19824411 3.29736616 0 0 Z " fill="#523DED" transform="translate(300,4)"/>
<path d="M0 0 C-2.00783174 4.81879617 -5.39748375 6.80874465 -10 9 C-13 9.3125 -13 9.3125 -15 9 C-15.0928125 9.8971875 -15.0928125 9.8971875 -15.1875 10.8125 C-16 13 -16 13 -18.5625 14.5 C-19.366875 14.995 -20.17125 15.49 -21 16 C-21 17.32 -21 18.64 -21 20 C-21.66 20 -22.32 20 -23 20 C-23.495 19.01 -23.495 19.01 -24 18 C-24.66 19.32 -25.32 20.64 -26 22 C-26.495 21.01 -26.495 21.01 -27 20 C-29.01669827 18.86649466 -29.01669827 18.86649466 -31 18 C-31 18.66 -31 19.32 -31 20 C-32.42892578 20.70576172 -32.42892578 20.70576172 -33.88671875 21.42578125 C-35.15369961 22.05457916 -36.42062369 22.68349148 -37.6875 23.3125 C-38.62625977 23.7755957 -38.62625977 23.7755957 -39.58398438 24.24804688 C-43.15420407 26.0238106 -46.61309592 27.89532729 -50 30 C-49.67 30.66 -49.34 31.32 -49 32 C-52.08809695 33.76462683 -53.23312136 34 -57 34 C-56.67 128.38 -56.34 222.76 -56 320 C-54.35 320.33 -52.7 320.66 -51 321 C-51 321.66 -51 322.32 -51 323 C-56.75 326 -56.75 326 -59 326 C-59.16015537 288.75871475 -59.28353362 251.51748129 -59.35745731 214.27592145 C-59.36621245 209.88113132 -59.37527269 205.48634186 -59.38452148 201.09155273 C-59.38727574 199.77914487 -59.38727574 199.77914487 -59.39008565 198.44022372 C-59.42056076 184.26563693 -59.47576142 170.09124848 -59.54006957 155.91677944 C-59.60548632 141.37689811 -59.64440213 126.83712079 -59.65861946 112.29709834 C-59.66823357 103.32202725 -59.69861841 94.34751673 -59.75541527 85.37261816 C-59.79236304 79.22160225 -59.80361309 73.07087693 -59.79450964 66.91975806 C-59.79001734 63.36846164 -59.7969935 59.81814594 -59.83443832 56.26702309 C-59.87471594 52.41921182 -59.86094858 48.57268511 -59.84178162 44.72468567 C-59.86217151 43.59920203 -59.8825614 42.47371838 -59.90356916 41.31412917 C-59.80377494 33.93489115 -59.80377494 33.93489115 -57.46799481 31.21808565 C-55.69299421 29.92522995 -53.98273233 28.93474888 -52 28 C-50.83597656 27.31744141 -50.83597656 27.31744141 -49.6484375 26.62109375 C-48.52308594 26.03521484 -48.52308594 26.03521484 -47.375 25.4375 C-41.81989471 22.46918138 -36.34294966 19.37587734 -30.875 16.25 C-29.97394531 15.73590576 -29.07289062 15.22181152 -28.14453125 14.69213867 C-23.72957242 12.16542498 -19.33257717 9.61414686 -14.96875 7 C-13.80303467 6.30342285 -13.80303467 6.30342285 -12.61376953 5.59277344 C-11.15284313 4.71653623 -9.69530302 3.83462098 -8.24169922 2.94628906 C-3.32999897 0 -3.32999897 0 0 0 Z " fill="#8074E3" transform="translate(108,57)"/>
<path d="M0 0 C0 55.11 0 110.22 0 167 C-1.98 167.99 -3.96 168.98 -6 170 C-6 168.68 -6 167.36 -6 166 C-5.01 166 -4.02 166 -3 166 C-3 112.87 -3 59.74 -3 5 C-4.32 5.33 -5.64 5.66 -7 6 C-7 5.01 -7 4.02 -7 3 C-2.77777778 0 -2.77777778 0 0 0 Z " fill="#7061D5" transform="translate(335,121)"/>
<path d="M0 0 C1.66832577 2.50248865 2.62381674 4.41149187 3.625 7.1875 C3.88539063 7.90292969 4.14578125 8.61835938 4.4140625 9.35546875 C4.60742188 9.89816406 4.80078125 10.44085938 5 11 C5.46374023 10.66154053 5.92748047 10.32308105 6.40527344 9.97436523 C8.5109225 8.44879566 10.63004033 6.9431115 12.75 5.4375 C13.47960937 4.90447266 14.20921875 4.37144531 14.9609375 3.82226562 C15.66992188 3.32275391 16.37890625 2.82324219 17.109375 2.30859375 C18.08342285 1.60947876 18.08342285 1.60947876 19.07714844 0.89624023 C21 0 21 0 23.09863281 0.24243164 C25.80156487 1.31937029 27.23187565 2.70798696 29 5 C28.60027329 8.03575182 27.44482803 10.1145627 25.71484375 12.6015625 C25.26689453 13.25640625 24.81894531 13.91125 24.35742188 14.5859375 C23.88884766 15.25882813 23.42027344 15.93171875 22.9375 16.625 C19.46315481 20.95461218 19.46315481 20.95461218 18 26 C17.01 26 16.02 26 15 26 C15.33 24.35 15.66 22.7 16 21 C16.66 21 17.32 21 18 21 C18 20.34 18 19.68 18 19 C17.195625 18.855625 16.39125 18.71125 15.5625 18.5625 C13 18 13 18 12 17 C11.95936168 15.33382885 11.957279 13.66611905 12 12 C9.69 12.33 7.38 12.66 5 13 C5 13.66 5 14.32 5 15 C3.02 15.33 1.04 15.66 -1 16 C-0.67 14.68 -0.34 13.36 0 12 C0.66 12 1.32 12 2 12 C1.67 10.7625 1.34 9.525 1 8.25 C0.20108841 5.25408155 0 3.19892281 0 0 Z " fill="#5644E1" transform="translate(315,23)"/>
<path d="M0 0 C-2.00783174 4.81879617 -5.39748375 6.80874465 -10 9 C-13 9.3125 -13 9.3125 -15 9 C-15.0928125 9.8971875 -15.0928125 9.8971875 -15.1875 10.8125 C-16 13 -16 13 -18.5625 14.5 C-19.366875 14.995 -20.17125 15.49 -21 16 C-21 17.32 -21 18.64 -21 20 C-21.66 20 -22.32 20 -23 20 C-23.33 19.34 -23.66 18.68 -24 18 C-24.66 19.32 -25.32 20.64 -26 22 C-26.33 21.34 -26.66 20.68 -27 20 C-29.01669827 18.86649466 -29.01669827 18.86649466 -31 18 C-31 18.66 -31 19.32 -31 20 C-32.42892578 20.70576172 -32.42892578 20.70576172 -33.88671875 21.42578125 C-35.15369961 22.05457916 -36.42062369 22.68349148 -37.6875 23.3125 C-38.62625977 23.7755957 -38.62625977 23.7755957 -39.58398438 24.24804688 C-43.15420407 26.0238106 -46.61309592 27.89532729 -50 30 C-49.67 30.66 -49.34 31.32 -49 32 C-50.98 32.66 -52.96 33.32 -55 34 C-55 32.68 -55 31.36 -55 30 C-54.32122803 29.62302979 -53.64245605 29.24605957 -52.94311523 28.85766602 C-37.20485449 20.15213768 -37.20485449 20.15213768 -21.6875 11.0625 C-21.10959717 10.71268066 -20.53169434 10.36286133 -19.9362793 10.00244141 C-18.2899198 9.00316326 -16.64494045 8.00161236 -15 7 C-12.75576204 5.63559453 -10.50532968 4.28372533 -8.25 2.9375 C-7.30640625 2.36902344 -6.3628125 1.80054688 -5.390625 1.21484375 C-3 0 -3 0 0 0 Z " fill="#5A47DB" transform="translate(108,57)"/>
<path d="M0 0 C0.33 0 0.66 0 1 0 C1 46.53 1 93.06 1 141 C2.32 141.33 3.64 141.66 5 142 C7.140625 143.33984375 7.140625 143.33984375 9.25 144.9375 C9.95640625 145.46214844 10.6628125 145.98679687 11.390625 146.52734375 C11.92171875 147.01332031 12.4528125 147.49929688 13 148 C13 148.66 13 149.32 13 150 C11.35 149.67 9.7 149.34 8 149 C8 148.34 8 147.68 8 147 C7.05125 146.54625 6.1025 146.0925 5.125 145.625 C2 144 2 144 0 142 C-0.24609566 139.53623772 -0.24609566 139.53623772 -0.24050903 136.36862183 C-0.24325836 135.17106262 -0.24600769 133.97350342 -0.24884033 132.73965454 C-0.24176162 131.40569969 -0.23449199 130.07174584 -0.22705078 128.73779297 C-0.22648687 127.33850106 -0.22680283 125.93920856 -0.22793579 124.53991699 C-0.22851109 120.73432015 -0.21672817 116.92884864 -0.20278788 113.123281 C-0.19031002 109.14877293 -0.18911235 105.17426219 -0.18673706 101.19973755 C-0.18051361 93.67034171 -0.16409113 86.14100374 -0.14403808 78.61163342 C-0.12170595 70.04102063 -0.11069242 61.47040512 -0.10064721 52.8997705 C-0.07972562 35.26648082 -0.04453289 17.63324506 0 0 Z " fill="#4433CA" transform="translate(113,130)"/>
<path d="M0 0 C1.98 0.495 1.98 0.495 4 1 C4 1.66 4 2.32 4 3 C4.70125 3.226875 5.4025 3.45375 6.125 3.6875 C9.74128535 5.33841288 12.08769976 7.2908835 15 10 C15 10.66 15 11.32 15 12 C12.69 12.33 10.38 12.66 8 13 C8.33 11.35 8.66 9.7 9 8 C8.21625 7.71125 7.4325 7.4225 6.625 7.125 C4 6 4 6 2 4 C1.67 44.92 1.34 85.84 1 128 C0.67 128 0.34 128 0 128 C-0.15399567 112.0491993 -0.30202617 96.09835611 -0.4429636 80.14743519 C-0.5085428 72.74108307 -0.57607081 65.33475832 -0.64819336 57.9284668 C-0.71105336 51.47284153 -0.77025 45.01719482 -0.82505554 38.56149596 C-0.85419988 35.14354793 -0.8851732 31.72563863 -0.92053413 28.30774879 C-0.95909648 24.49140483 -0.99118387 20.67505794 -1.02172852 16.85864258 C-1.03467453 15.72647812 -1.04762054 14.59431366 -1.06095886 13.42784119 C-1.06799835 12.38602692 -1.07503784 11.34421265 -1.08229065 10.27082825 C-1.09058679 9.36839292 -1.09888292 8.46595758 -1.10743046 7.53617573 C-0.99705799 4.93054609 -0.57893117 2.53934557 0 0 Z " fill="#6E5EE0" transform="translate(272,119)"/>
<path d="M0 0 C0.99 0.66 1.98 1.32 3 2 C3 2.66 3 3.32 3 4 C3.66 4 4.32 4 5 4 C6.60634015 5.73391951 8.1375287 7.538091 9.625 9.375 C10.44226563 10.37273438 11.25953125 11.37046875 12.1015625 12.3984375 C14 15 14 15 14 17 C14.66 17 15.32 17 16 17 C15.67 17.66 15.34 18.32 15 19 C11.33637419 16.32654333 9.22748343 13.92461366 7 10 C6.34 9.67 5.68 9.34 5 9 C5 9.66 5 10.32 5 11 C4.01 11.33 3.02 11.66 2 12 C1.01 11.34 0.02 10.68 -1 10 C-1.33 10.66 -1.66 11.32 -2 12 C-2.66 11.34 -3.32 10.68 -4 10 C-6.85741478 10.38961122 -6.85741478 10.38961122 -10 11.3125 C-11.0725 11.59738281 -12.145 11.88226563 -13.25 12.17578125 C-15.92902616 12.89301392 -15.92902616 12.89301392 -18 14 C-18 13.34 -18 12.68 -18 12 C-18.66 11.67 -19.32 11.34 -20 11 C-19.31035156 10.62488281 -18.62070313 10.24976563 -17.91015625 9.86328125 C-11.92430667 6.6034976 -5.95192711 3.32132229 0 0 Z " fill="#5941F6" transform="translate(128,44)"/>
<path d="M0 0 C10.24638634 0.46428938 19.97533762 1.92997231 30 4 C26.841098 5.89965861 25.04351147 6.13456039 21.4375 5.5 C17.5353393 4.80366715 17.5353393 4.80366715 14 7 C14 6.34 14 5.68 14 5 C13.443125 5.495 12.88625 5.99 12.3125 6.5 C9.61837017 8.24754367 8.14624993 8.26218749 5 8 C5.33 9.65 5.66 11.3 6 13 C6.66 13 7.32 13 8 13 C8.33 15.31 8.66 17.62 9 20 C6.3539919 16.67615649 4.29763888 13.15624912 2.25 9.4375 C1.61578125 8.30183594 0.9815625 7.16617188 0.328125 5.99609375 C-1 3 -1 3 0 0 Z " fill="#5C48DE" transform="translate(165,194)"/>
<path d="M0 0 C6.43223629 0.31494942 12.90850764 2.43006622 19.125 4.0625 C19.78846436 4.23668457 20.45192871 4.41086914 21.13549805 4.59033203 C25.87438587 5.87438587 25.87438587 5.87438587 27 7 C27.07244053 9.01964199 27.08377188 11.04167124 27.0625 13.0625 C27.05347656 14.16722656 27.04445313 15.27195312 27.03515625 16.41015625 C27.02355469 17.26480469 27.01195312 18.11945313 27 19 C23.37612543 20.00410968 19.75072349 21.00258908 16.125 22 C15.09246094 22.28617188 14.05992187 22.57234375 12.99609375 22.8671875 C12.00996094 23.13789062 11.02382813 23.40859375 10.0078125 23.6875 C9.09660645 23.93886719 8.18540039 24.19023438 7.24658203 24.44921875 C5 25 5 25 3 25 C3 23.68 3 22.36 3 21 C6.08191704 20.32667007 9.1657408 19.66251141 12.25 19 C13.12269531 18.80921875 13.99539063 18.6184375 14.89453125 18.421875 C16.16103516 18.15117188 16.16103516 18.15117188 17.453125 17.875 C18.22817383 17.70742187 19.00322266 17.53984375 19.80175781 17.3671875 C22 17 22 17 26 17 C26 14.36 26 11.72 26 9 C25.12988281 8.94392578 25.12988281 8.94392578 24.2421875 8.88671875 C19.05077386 8.4498176 15.68196245 7.34098122 11 5 C6.69598083 3.85948653 2.3576862 2.91162278 -2 2 C-1.34 1.34 -0.68 0.68 0 0 Z " fill="#7469C0" transform="translate(337,49)"/>
<path d="M0 0 C2.475 0.99 2.475 0.99 5 2 C5 2.66 5 3.32 5 4 C5.85464844 4.06058594 6.70929688 4.12117187 7.58984375 4.18359375 C9.24693359 4.30927734 9.24693359 4.30927734 10.9375 4.4375 C12.03964844 4.51871094 13.14179688 4.59992188 14.27734375 4.68359375 C17 5 17 5 18 6 C21.37106883 6.02639539 24.72837381 5.97075014 28.09765625 5.87304688 C31.96100993 5.81323175 33.70434192 5.80289461 37 8 C37 6.35 37 4.7 37 3 C37.66 3 38.32 3 39 3 C39.495 6.96 39.495 6.96 40 11 C35.44456945 10.76701701 30.89456834 10.49121893 26.34472656 10.16650391 C24.7923893 10.05626921 23.2396388 9.95169508 21.68652344 9.85302734 C7.11184167 8.87329521 7.11184167 8.87329521 2.4375 5 C0 2 0 2 0 0 Z " fill="#6259B8" transform="translate(180,179)"/>
<path d="M0 0 C3.3 0 6.6 0 10 0 C10.84080019 2.41429769 11.67281402 4.83103993 12.5 7.25 C12.73847656 7.93191406 12.97695313 8.61382812 13.22265625 9.31640625 C14.39421287 12.76413003 15 15.31702904 15 19 C14.34 19 13.68 19 13 19 C12.34 15.7 11.68 12.4 11 9 C10.34 9 9.68 9 9 9 C9 7.02 9 5.04 9 3 C6.97954558 3.60183749 4.97888961 4.27306096 3 5 C2.67 5.66 2.34 6.32 2 7 C2.66 7 3.32 7 4 7 C4 6.34 4 5.68 4 5 C4.66 5 5.32 5 6 5 C6.125 7.375 6.125 7.375 6 10 C5.34 10.66 4.68 11.32 4 12 C3.01 11.67 2.02 11.34 1 11 C1 10.34 1 9.68 1 9 C0.01 10.485 0.01 10.485 -1 12 C-1.66 12 -2.32 12 -3 12 C-4.57873923 7.26378231 -2.10863845 4.40897131 0 0 Z " fill="#5741E6" transform="translate(300,4)"/>
<path d="M0 0 C1.24546405 2.49092811 0.7767578 3.41080733 0 6 C-0.99 6 -1.98 6 -3 6 C-3 7.65 -3 9.3 -3 11 C-1.68 10.67 -0.36 10.34 1 10 C1 10.66 1 11.32 1 12 C3.97 11.01 6.94 10.02 10 9 C10 9.99 10 10.98 10 12 C8.20703125 13.640625 8.20703125 13.640625 5.8125 15.25 C5.03519531 15.79140625 4.25789063 16.3328125 3.45703125 16.890625 C0.43540668 18.25491972 -0.89223166 18.03761824 -4 17 C-4.99 16.34 -5.98 15.68 -7 15 C-7.1875 11.875 -7.1875 11.875 -7 9 C-6.34 9 -5.68 9 -5 9 C-4.731875 8.2575 -4.46375 7.515 -4.1875 6.75 C-3.05770579 4.13363446 -1.79106798 2.19812889 0 0 Z " fill="#6152CF" transform="translate(273,82)"/>
<path d="M0 0 C-1.65 0.66 -3.3 1.32 -5 2 C-4.4946875 2.69867188 -3.989375 3.39734375 -3.46875 4.1171875 C-2.8190625 5.02726562 -2.169375 5.93734375 -1.5 6.875 C-0.8503125 7.77992187 -0.200625 8.68484375 0.46875 9.6171875 C2 12 2 12 2 14 C2.66 14 3.32 14 4 14 C6 17 6 17 6 21 C5.34 21 4.68 21 4 21 C4 21.66 4 22.32 4 23 C3.34 23 2.68 23 2 23 C2 23.66 2 24.32 2 25 C-1.71599191 25.20086443 -2.77208445 25.1519437 -6 23 C-6 22.34 -6 21.68 -6 21 C-7.98 20.34 -9.96 19.68 -12 19 C-12 18.01 -12 17.02 -12 16 C-11.34 16 -10.68 16 -10 16 C-10 16.66 -10 17.32 -10 18 C-8.35 18.33 -6.7 18.66 -5 19 C-4.67 19.99 -4.34 20.98 -4 22 C-2.02 21.67 -0.04 21.34 2 21 C0.41435594 15.48628314 -1.13579488 11.36281223 -5 7 C-6.60901836 4.26466879 -7 3.24114485 -7 0 C-3.86650268 -1.04449911 -3.01031744 -0.93423645 0 0 Z " fill="#6A60BD" transform="translate(338,75)"/>
<path d="M0 0 C1.485 0.99 1.485 0.99 3 2 C3 2.66 3 3.32 3 4 C3.66 4 4.32 4 5 4 C6.7265625 5.8984375 6.7265625 5.8984375 8.625 8.375 C9.25664062 9.18710938 9.88828125 9.99921875 10.5390625 10.8359375 C12 13 12 13 12 15 C12.66 15 13.32 15 14 15 C15.91015625 17.08203125 15.91015625 17.08203125 18.0625 19.8125 C18.77535156 20.70582031 19.48820312 21.59914062 20.22265625 22.51953125 C22 25 22 25 23 28 C21 28 21 28 18.875 26.1875 C17 24 17 24 17 21 C16.1028125 20.9071875 16.1028125 20.9071875 15.1875 20.8125 C12.12856542 19.6763243 11.44958901 17.82669858 10 15 C7.69 15.33 5.38 15.66 3 16 C3.495 15.1028125 3.495 15.1028125 4 14.1875 C5.20787988 11.94613529 5.20787988 11.94613529 5 9 C3.02 9.99 3.02 9.99 1 11 C1 8.16032769 1.40267181 5.76264289 2 3 C1.01 3 0.02 3 -1 3 C-0.67 2.01 -0.34 1.02 0 0 Z " fill="#584BC4" transform="translate(184,111)"/>
<path d="M0 0 C0 0.99 0 1.98 0 3 C-1.45019531 3.76183594 -1.45019531 3.76183594 -2.9296875 4.5390625 C-9.79453673 8.16357572 -16.57092705 11.82859057 -23.14453125 15.96875 C-25 17 -25 17 -27 17 C-27 16.34 -27 15.68 -27 15 C-26.34 14.67 -25.68 14.34 -25 14 C-24.67 13.01 -24.34 12.02 -24 11 C-23.21625 10.71125 -22.4325 10.4225 -21.625 10.125 C-18.31998569 8.7085653 -17.7279186 7.06312843 -16 4 C-15.01 3.67 -14.02 3.34 -13 3 C-12.01 4.485 -12.01 4.485 -11 6 C-9.68 5.67 -8.36 5.34 -7 5 C-7 4.01 -7 3.02 -7 2 C-4.69 1.34 -2.38 0.68 0 0 Z " fill="#4C3ACF" transform="translate(107,349)"/>
<path d="M0 0 C3.79890896 1.3380228 6.56874496 3.02619497 9.6875 5.5625 C12.68776321 8.02472431 12.68776321 8.02472431 16 10 C16 10.66 16 11.32 16 12 C16.99 12.33 17.98 12.66 19 13 C19 14.32 19 15.64 19 17 C17.71086513 17.67154933 16.41859796 18.33708859 15.125 19 C14.40570313 19.37125 13.68640625 19.7425 12.9453125 20.125 C11 21 11 21 9 21 C9.33 19.68 9.66 18.36 10 17 C11.65 17 13.3 17 15 17 C15 15.35 15 13.7 15 12 C13.35 12 11.7 12 10 12 C9.79375 11.195625 9.5875 10.39125 9.375 9.5625 C8.92125 8.716875 8.4675 7.87125 8 7 C5.05636102 6.32882152 5.05636102 6.32882152 2 6 C0.125 4.4375 0.125 4.4375 -1 3 C-0.67 2.01 -0.34 1.02 0 0 Z " fill="#675CBA" transform="translate(152,299)"/>
<path d="M0 0 C0.33 0 0.66 0 1 0 C1.33 10.89 1.66 21.78 2 33 C3.65 33.33 5.3 33.66 7 34 C7 34.66 7 35.32 7 36 C1.25 39 1.25 39 -1 39 C-1.14323814 25.96532922 -0.71875936 13.0146785 0 0 Z " fill="#4D3ECD" transform="translate(50,344)"/>
<path d="M0 0 C0 0.99 0 1.98 0 3 C-0.99 3 -1.98 3 -3 3 C-3.33 4.32 -3.66 5.64 -4 7 C-5.32 7.33 -6.64 7.66 -8 8 C-8 8.66 -8 9.32 -8 10 C-8.63808594 10.32613281 -9.27617187 10.65226563 -9.93359375 10.98828125 C-10.75988281 11.42527344 -11.58617187 11.86226562 -12.4375 12.3125 C-13.26121094 12.74175781 -14.08492188 13.17101562 -14.93359375 13.61328125 C-17.30647644 14.90020887 -17.30647644 14.90020887 -18 18 C-19.65 17.67 -21.3 17.34 -23 17 C-18.95293613 12.71440585 -14.53440101 9.20435478 -9.8125 5.6875 C-9.08869141 5.13771484 -8.36488281 4.58792969 -7.61914062 4.02148438 C-6.92626953 3.50263672 -6.23339844 2.98378906 -5.51953125 2.44921875 C-4.89151611 1.97830811 -4.26350098 1.50739746 -3.61645508 1.0222168 C-2 0 -2 0 0 0 Z " fill="#5E53B8" transform="translate(327,127)"/>
<path d="M0 0 C1.98 0 3.96 0 6 0 C6 0.66 6 1.32 6 2 C6.66 2.33 7.32 2.66 8 3 C7.67 3.99 7.34 4.98 7 6 C4.525 5.01 4.525 5.01 2 4 C1.67386719 5.18335937 1.34773438 6.36671875 1.01171875 7.5859375 C-1.24359134 15.74924514 -3.49908289 23.90760155 -6 32 C-8.92189509 23.23431474 -2.59529608 8.54998555 0 0 Z " fill="#756ACB" transform="translate(317,86)"/>
<path d="M0 0 C0.99 0.33 1.98 0.66 3 1 C-1.75 4 -1.75 4 -4 4 C-4 4.66 -4 5.32 -4 6 C-4.95261719 6.47050781 -5.90523437 6.94101563 -6.88671875 7.42578125 C-8.15369961 8.05457916 -9.42062369 8.68349148 -10.6875 9.3125 C-11.31333984 9.62123047 -11.93917969 9.92996094 -12.58398438 10.24804688 C-16.15420407 12.0238106 -19.61309592 13.89532729 -23 16 C-22.67 16.66 -22.34 17.32 -22 18 C-23.98 18.66 -25.96 19.32 -28 20 C-28 18.68 -28 17.36 -28 16 C-26.88757935 15.37955811 -26.88757935 15.37955811 -25.75268555 14.74658203 C-22.99578642 13.20817918 -20.23950783 11.668672 -17.48364258 10.12841797 C-16.29183222 9.46261118 -15.0997771 8.79724231 -13.9074707 8.13232422 C-12.19157316 7.17531258 -10.47663386 6.21658348 -8.76171875 5.2578125 C-7.73006592 4.6817627 -6.69841309 4.10571289 -5.63549805 3.51220703 C-3.7156323 2.41061848 -1.84170566 1.22780377 0 0 Z " fill="#746BAD" transform="translate(81,71)"/>
<path d="M0 0 C3.17091721 0.70464827 6.11768868 1.48299404 9 3 C9.66666667 4.66666667 10.33333333 6.33333333 11 8 C13.40952023 9.24714403 13.40952023 9.24714403 16 10 C16.99 10.66 17.98 11.32 19 12 C19 12.66 19 13.32 19 14 C19.99 14.33 20.98 14.66 22 15 C22.6875 17.0625 22.6875 17.0625 23 19 C21.989375 18.236875 20.97875 17.47375 19.9375 16.6875 C17.02810211 14.49361407 14.09183323 12.34332988 11.12890625 10.22265625 C10.45029541 9.73385986 9.77168457 9.24506348 9.07250977 8.74145508 C7.69526806 7.75034074 6.31424988 6.76445237 4.92944336 5.78393555 C3.25010134 4.57123089 1.61998539 3.29092586 0 2 C0 1.34 0 0.68 0 0 Z " fill="#6F63C0" transform="translate(147,154)"/>
<path d="M0 0 C8.69715851 0.42584957 17.63135543 3.67349422 26 6 C26 6.99 26 7.98 26 9 C20.18261052 8.62510157 16.24121291 7.62060646 11 5 C6.69598083 3.85948653 2.3576862 2.91162278 -2 2 C-1.34 1.34 -0.68 0.68 0 0 Z " fill="#635AAA" transform="translate(337,49)"/>
<path d="M0 0 C0 2.31 0 4.62 0 7 C-1.26457031 7.30744141 -1.26457031 7.30744141 -2.5546875 7.62109375 C-3.65039062 7.89050781 -4.74609375 8.15992188 -5.875 8.4375 C-7.51082031 8.83775391 -7.51082031 8.83775391 -9.1796875 9.24609375 C-11.92484721 9.8786478 -11.92484721 9.8786478 -14 11 C-14 10.34 -14 9.68 -14 9 C-14.66 8.67 -15.32 8.34 -16 8 C-14.25048432 7.04078278 -12.50036756 6.08266183 -10.75 5.125 C-9.28820312 4.32449219 -9.28820312 4.32449219 -7.796875 3.5078125 C-1.29015544 0 -1.29015544 0 0 0 Z " fill="#6858CA" transform="translate(124,47)"/>
<path d="M0 0 C19.95120021 1.30606051 19.95120021 1.30606051 25.3828125 6.10546875 C26.18332031 7.04326172 26.18332031 7.04326172 27 8 C26.67 8.66 26.34 9.32 26 10 C25.278125 9.525625 24.55625 9.05125 23.8125 8.5625 C21.10524774 7.05847097 19.03805725 6.43400818 16 6 C16 5.34 16 4.68 16 4 C11.71 3.67 7.42 3.34 3 3 C3 2.34 3 1.68 3 1 C2.01 0.67 1.02 0.34 0 0 Z " fill="#5C53A2" transform="translate(196,199)"/>
<path d="M0 0 C3.3 0 6.6 0 10 0 C10 0.66 10 1.32 10 2 C11.3921875 2.2165625 11.3921875 2.2165625 12.8125 2.4375 C16 3 16 3 19 4 C18.64950425 7.24208567 18.43778819 8.61527704 15.9375 10.8125 C15.298125 11.204375 14.65875 11.59625 14 12 C14.66 10.35 15.32 8.7 16 7 C10.69905784 5.19695845 5.39691512 3.49276376 0 2 C0 1.34 0 0.68 0 0 Z " fill="#685DBE" transform="translate(260,70)"/>
<path d="M0 0 C0.99 0 1.98 0 3 0 C3 0.99 3 1.98 3 3 C1.1640625 4.4296875 1.1640625 4.4296875 -1.375 5.875 C-2.27734375 6.390625 -3.1796875 6.90625 -4.109375 7.4375 C-8.35507356 9.7324722 -12.6506652 11.90861773 -17 14 C-16.25 11.0625 -16.25 11.0625 -15 8 C-13.1875 7.3125 -13.1875 7.3125 -11 7 C-10.21625 6.505 -9.4325 6.01 -8.625 5.5 C-5.70954653 3.83402659 -3.31230719 3.385152 0 3 C0 2.01 0 1.02 0 0 Z " fill="#6457BE" transform="translate(128,335)"/>
<path d="M0 0 C3 2 3 2 3.6953125 4.34765625 C3.83710938 5.24355469 3.97890625 6.13945313 4.125 7.0625 C4.43154347 10.33184615 4.43154347 10.33184615 6 13 C7.34747084 13.23075082 8.70377565 13.41153063 10.0625 13.5625 C11.361875 13.706875 12.66125 13.85125 14 14 C14 14.66 14 15.32 14 16 C10.37 16 6.74 16 3 16 C0.91235115 10.34595103 -0.38388527 6.01420257 0 0 Z " fill="#5C51B7" transform="translate(296,104)"/>
<path d="M0 0 C2 0 2 0 3.5625 1.0625 C5.64056847 3.86337489 5.67810527 6.58791584 6 10 C6.99 10 7.98 10 9 10 C9.103125 10.7425 9.20625 11.485 9.3125 12.25 C10.40755518 16.63022072 12.27967603 18.51978402 16 21 C15.67 21.99 15.34 22.98 15 24 C9.48770231 18.459067 0 8.43747974 0 0 Z " fill="#6E62C5" transform="translate(192,247)"/>
<path d="M0 0 C-2.05907249 4.86313602 -5.34436524 6.77065205 -10 9 C-12.97336239 9.89614477 -15.93278792 10.52429813 -19 11 C-19 10.34 -19 9.68 -19 9 C-16.40011448 7.49212623 -13.79559803 5.99354539 -11.1875 4.5 C-10.44951172 4.07074219 -9.71152344 3.64148437 -8.95117188 3.19921875 C-8.23896484 2.79316406 -7.52675781 2.38710938 -6.79296875 1.96875 C-6.1383667 1.59169922 -5.48376465 1.21464844 -4.80932617 0.82617188 C-3 0 -3 0 0 0 Z " fill="#655AB8" transform="translate(108,57)"/>
<path d="M0 0 C1.66832577 2.50248865 2.62381674 4.41149187 3.625 7.1875 C3.88539063 7.90292969 4.14578125 8.61835938 4.4140625 9.35546875 C4.60742188 9.89816406 4.80078125 10.44085938 5 11 C6.98 9.68 8.96 8.36 11 7 C11.66 7.33 12.32 7.66 13 8 C11.25 10.5 11.25 10.5 9 13 C7.68 13 6.36 13 5 13 C5 13.66 5 14.32 5 15 C3.02 15.33 1.04 15.66 -1 16 C-0.67 14.68 -0.34 13.36 0 12 C0.66 12 1.32 12 2 12 C1.67 10.7625 1.34 9.525 1 8.25 C0.20108841 5.25408155 0 3.19892281 0 0 Z " fill="#7667DD" transform="translate(315,23)"/>
<path d="M0 0 C4.63687788 1.52242707 7.9343228 4.05740795 11.6875 7.0625 C15.64929631 10.32558304 15.64929631 10.32558304 20 13 C20 13.66 20 14.32 20 15 C20.99 15.33 21.98 15.66 23 16 C23 16.66 23 17.32 23 18 C21.35 17.67 19.7 17.34 18 17 C18 16.34 18 15.68 18 15 C17.34 15 16.68 15 16 15 C14.31126121 13.35570171 12.64694485 11.68615782 11 10 C10.2575 9.443125 9.515 8.88625 8.75 8.3125 C7 7 7 7 6 5 C5.34 5 4.68 5 4 5 C4 4.34 4 3.68 4 3 C2.68 2.67 1.36 2.34 0 2 C0 1.34 0 0.68 0 0 Z " fill="#7870B2" transform="translate(128,281)"/>
<path d="M0 0 C1.98 0.495 1.98 0.495 4 1 C4 1.66 4 2.32 4 3 C4.70125 3.226875 5.4025 3.45375 6.125 3.6875 C9.74128535 5.33841288 12.08769976 7.2908835 15 10 C15 10.66 15 11.32 15 12 C12.69 12.33 10.38 12.66 8 13 C8.33 11.35 8.66 9.7 9 8 C8.21625 7.71125 7.4325 7.4225 6.625 7.125 C4 6 4 6 2 4 C1.67 4.99 1.34 5.98 1 7 C0.34 7 -0.32 7 -1 7 C-0.67 4.69 -0.34 2.38 0 0 Z " fill="#6B5DC8" transform="translate(272,119)"/>
<path d="M0 0 C0.66 0 1.32 0 2 0 C2 0.99 2 1.98 2 3 C-6.79292724 5.79774958 -15.76539951 7.35517694 -25 7 C-25 6.67 -25 6.34 -25 6 C-8.29157175 1.40774487 -8.29157175 1.40774487 0 2 C0 1.34 0 0.68 0 0 Z " fill="#6859B3" transform="translate(278,47)"/>
<path d="M0 0 C3.0432065 1.18759278 5.12784398 2.84359039 7.5625 5 C7.2325 5.66 6.9025 6.32 6.5625 7 C5.840625 6.319375 5.11875 5.63875 4.375 4.9375 C1.7419348 2.68262931 1.7419348 2.68262931 -1.25 3.25 C-2.3328125 3.62125 -2.3328125 3.62125 -3.4375 4 C-3.7675 5.32 -4.0975 6.64 -4.4375 8 C-3.7775 8 -3.1175 8 -2.4375 8 C-1.7775 7.34 -1.1175 6.68 -0.4375 6 C0.2225 6.33 0.8825 6.66 1.5625 7 C1.2325 7.66 0.9025 8.32 0.5625 9 C0.2325 9 -0.0975 9 -0.4375 9 C-0.4375 11.31 -0.4375 13.62 -0.4375 16 C-6.22063253 10.40963855 -6.22063253 10.40963855 -6.8125 6.5625 C-6.4375 4 -6.4375 4 -4.75 1.625 C-2.4375 0 -2.4375 0 0 0 Z " fill="#7A71AB" transform="translate(272.4375,23)"/>
<path d="M0 0 C3.59391114 1.33488128 6.75490696 2.96022723 10 5 C10.33 3.68 10.66 2.36 11 1 C12.38550197 3.77100394 12.1877467 5.9334706 12 9 C11.01 10.485 11.01 10.485 10 12 C9.01 11.67 8.02 11.34 7 11 C6.4375 9.125 6.4375 9.125 6 7 C3.9927092 3.9890638 3.16115776 3.36983503 0 2 C0 1.34 0 0.68 0 0 Z " fill="#624DE8" transform="translate(281,30)"/>
<path d="M0 0 C3.50733885 2.86964087 6.84839187 5.73583443 10 9 C10.66 9.66 11.32 10.32 12 11 C12.45375 11.763125 12.9075 12.52625 13.375 13.3125 C16.63704382 18.88833291 16.63704382 18.88833291 22 22 C22 22.66 22 23.32 22 24 C18.20450741 23.45418801 16.69020705 21.94590705 14.25 19.0625 C13.63640625 18.35222656 13.0228125 17.64195312 12.390625 16.91015625 C11 15 11 15 11 13 C10.34 13 9.68 13 9 13 C7.08984375 10.91796875 7.08984375 10.91796875 4.9375 8.1875 C3.86822266 6.84751953 3.86822266 6.84751953 2.77734375 5.48046875 C1 3 1 3 0 0 Z " fill="#7B73BC" transform="translate(239,307)"/>
<path d="M0 0 C-1.24310143 3.7293043 -2.34690644 4.08252926 -5.6875 6 C-6.58855469 6.51820313 -7.48960937 7.03640625 -8.41796875 7.5703125 C-16.41803279 12 -16.41803279 12 -19 12 C-19 11.01 -19 10.02 -19 9 C-17.68 9 -16.36 9 -15 9 C-15 8.01 -15 7.02 -15 6 C-14.071875 5.9175 -13.14375 5.835 -12.1875 5.75 C-8.45130904 4.87089624 -8.08519578 4.03301205 -6 1 C-3.85612525 0.22040918 -2.27249091 0 0 0 Z " fill="#6B63BC" transform="translate(307,302)"/>
<path d="M0 0 C0.99 0.33 1.98 0.66 3 1 C2.34 1 1.68 1 1 1 C1.33 3.97 1.66 6.94 2 10 C5.63 10.66 9.26 11.32 13 12 C13.33 12.99 13.66 13.98 14 15 C9.38 14.01 4.76 13.02 0 12 C0 8.04 0 4.08 0 0 Z " fill="#796CC7" transform="translate(245,56)"/>
<path d="M0 0 C0.33 0.66 0.66 1.32 1 2 C2.98 2 4.96 2 7 2 C7 2.99 7 3.98 7 5 C7.66 5.33 8.32 5.66 9 6 C8.01 6.99 7.02 7.98 6 9 C4.02 8.34 2.04 7.68 0 7 C0 4.69 0 2.38 0 0 Z " fill="#4B37E3" transform="translate(51,370)"/>
<path d="M0 0 C3.57819624 1.57541193 6.31479973 3.75686314 9.3125 6.25 C10.27414062 7.04792969 11.23578125 7.84585938 12.2265625 8.66796875 C15.50387737 11.4236828 18.76420722 14.19564626 22 17 C21.34 17.33 20.68 17.66 20 18 C19.34 17.67 18.68 17.34 18 17 C18 16.34 18 15.68 18 15 C17.4225 14.71125 16.845 14.4225 16.25 14.125 C15.5075 13.75375 14.765 13.3825 14 13 C13.360625 12.731875 12.72125 12.46375 12.0625 12.1875 C9.25013562 10.5682599 7.28789566 8.28789566 5 6 C4.2575 5.649375 3.515 5.29875 2.75 4.9375 C1 4 1 4 0.25 1.875 C0.1675 1.25625 0.085 0.6375 0 0 Z " fill="#5A529D" transform="translate(250,231)"/>
<path d="M0 0 C2.35694954 0.09031574 4.71153582 0.24688128 7.0625 0.4375 C8.35285156 0.53933594 9.64320313 0.64117187 10.97265625 0.74609375 C12.47119141 0.87177734 12.47119141 0.87177734 14 1 C14 1.66 14 2.32 14 3 C10.37 3.33 6.74 3.66 3 4 C3 5.65 3 7.3 3 9 C0.86928411 6.40608501 -0.53582673 4.36525621 -1 1 C-0.67 0.67 -0.34 0.34 0 0 Z " fill="#6D63A9" transform="translate(165,194)"/>
<path d="M0 0 C-3.19078677 2.17907389 -6.37478159 4.24280273 -9.75 6.125 C-12.96613661 7.79338423 -12.96613661 7.79338423 -15 10 C-17.625 10.125 -17.625 10.125 -20 10 C-17.22194921 6.77255864 -13.64575135 4.84182455 -10 2.75 C-9.3709375 2.37359375 -8.741875 1.9971875 -8.09375 1.609375 C-3.3584045 -1.11946817 -3.3584045 -1.11946817 0 0 Z " fill="#5B46E2" transform="translate(77,78)"/>
<path d="M0 0 C2.95662966 0.22743305 4.55033688 0.61235938 6.8125 2.5625 C7.204375 3.036875 7.59625 3.51125 8 4 C4.12315913 5.19287411 1.08378077 6 -3 6 C-2.42655063 3.13275314 -2.1385485 2.1385485 0 0 Z " fill="#5744D7" transform="translate(270,25)"/>
<path d="M0 0 C-4.49101628 4.04191465 -9.58984989 6.43674441 -15 9 C-14.67 8.01 -14.34 7.02 -14 6 C-13.34 6 -12.68 6 -12 6 C-12 5.34 -12 4.68 -12 4 C-11.01 4 -10.02 4 -9 4 C-9 3.34 -9 2.68 -9 2 C-8.01 2 -7.02 2 -6 2 C-6 1.34 -6 0.68 -6 0 C-3 -1 -3 -1 0 0 Z " fill="#6358BA" transform="translate(147,328)"/>
<path d="M0 0 C0.33 0 0.66 0 1 0 C1.14492719 3.93711437 1.23394537 7.87354625 1.3125 11.8125 C1.35439453 12.93205078 1.39628906 14.05160156 1.43945312 15.20507812 C1.45556641 16.27822266 1.47167969 17.35136719 1.48828125 18.45703125 C1.51446533 19.44678955 1.54064941 20.43654785 1.56762695 21.45629883 C1 24 1 24 -1.53051758 25.84643555 C-2.75291138 26.41744995 -2.75291138 26.41744995 -4 27 C-4 25.68 -4 24.36 -4 23 C-3.01 23 -2.02 23 -1 23 C-0.67 15.41 -0.34 7.82 0 0 Z " fill="#5241C6" transform="translate(333,264)"/>
<path d="M0 0 C3.98615034 1.54713598 5.98472065 4.08127359 8.625 7.375 C9.40101563 8.33148438 10.17703125 9.28796875 10.9765625 10.2734375 C12.62137448 12.48980577 13.8929156 14.48822788 15 17 C14.34 17 13.68 17 13 17 C11.5625 15.50390625 11.5625 15.50390625 10 13.5625 C7.85474956 10.84811762 7.85474956 10.84811762 5 9 C4.690625 8.195625 4.38125 7.39125 4.0625 6.5625 C3.15452711 3.70136041 3.15452711 3.70136041 0 2 C0 1.34 0 0.68 0 0 Z " fill="#7F75BE" transform="translate(144,64)"/>
<path d="M0 0 C3.3 0 6.6 0 10 0 C10 0.66 10 1.32 10 2 C6.7 2 3.4 2 0 2 C-0.33 5.3 -0.66 8.6 -1 12 C-1.66 12 -2.32 12 -3 12 C-4.57873923 7.26378231 -2.10863845 4.40897131 0 0 Z " fill="#6A5EAD" transform="translate(300,4)"/>
<path d="M0 0 C3.95969176 1.67229701 7.0161201 4.36304994 10.25 7.125 C10.80429688 7.59292969 11.35859375 8.06085938 11.9296875 8.54296875 C13.28947326 9.69175328 14.64515165 10.84539653 16 12 C15.67 12.66 15.34 13.32 15 14 C11.22975351 12.74325117 9.77819804 10.8413389 7 8 C5.13699725 6.41973987 3.25553864 4.86748218 1.35546875 3.33203125 C0.90816406 2.89246094 0.46085938 2.45289063 0 2 C0 1.34 0 0.68 0 0 Z " fill="#746BAF" transform="translate(224,209)"/>
<path d="M0 0 C2.475 0.99 2.475 0.99 5 2 C5 2.66 5 3.32 5 4 C5.80824219 4.04898438 6.61648437 4.09796875 7.44921875 4.1484375 C9.05216797 4.26058594 9.05216797 4.26058594 10.6875 4.375 C11.74324219 4.44460937 12.79898438 4.51421875 13.88671875 4.5859375 C16.90677269 4.98760089 19.24078054 5.74069019 22 7 C22 7.33 22 7.66 22 8 C14.94092819 8.3715301 6.66410573 7.5678272 1 3 C0.67 2.01 0.34 1.02 0 0 Z " fill="#5F51CA" transform="translate(180,179)"/>
<path d="M0 0 C0.33 0 0.66 0 1 0 C1.33 2.64 1.66 5.28 2 8 C4.97 8.495 4.97 8.495 8 9 C8 9.66 8 10.32 8 11 C2.25 14 2.25 14 0 14 C0 9.38 0 4.76 0 0 Z " fill="#7C72CE" transform="translate(49,369)"/>
<path d="M0 0 C3.22468896 3.12391743 6.29392978 6.36331966 9.3125 9.6875 C10.00988281 10.45449219 10.70726562 11.22148438 11.42578125 12.01171875 C13 14 13 14 13 16 C10.5625 15.3125 10.5625 15.3125 8 14 C7.1875 11.375 7.1875 11.375 7 9 C6.34 9 5.68 9 5 9 C2.38953552 6.15222057 0.57323431 3.86933162 0 0 Z " fill="#7167B6" transform="translate(170,94)"/>
<path d="M0 0 C0 0.99 0 1.98 0 3 C-1.78881736 4.00508801 -3.58114696 5.00392736 -5.375 6 C-6.37273437 6.556875 -7.37046875 7.11375 -8.3984375 7.6875 C-11 9 -11 9 -13 9 C-13 8.01 -13 7.02 -13 6 C-11.35 6 -9.7 6 -8 6 C-8 5.01 -8 4.02 -8 3 C-6.68 3 -5.36 3 -4 3 C-4 2.34 -4 1.68 -4 1 C-2.68 0.67 -1.36 0.34 0 0 Z " fill="#6C62BA" transform="translate(280,317)"/>
<path d="M0 0 C0.66 0.33 1.32 0.66 2 1 C1.67 6.28 1.34 11.56 1 17 C0.67 17 0.34 17 0 17 C-0.33 13.04 -0.66 9.08 -1 5 C-2.32 5.33 -3.64 5.66 -5 6 C-5 5.01 -5 4.02 -5 3 C-2.625 1.25 -2.625 1.25 0 0 Z " fill="#5647BD" transform="translate(333,121)"/>
<path d="M0 0 C2.52833397 1.34844478 4.12226444 2.72793538 5.875 5 C5.625 7.25 5.625 7.25 4.875 9 C3.54166667 7 2.20833333 5 0.875 3 C-2.79381155 3.70554068 -5.82950534 5.27735506 -9.125 7 C-7.74557411 2.86172232 -4.56673327 0 0 0 Z " fill="#786FAF" transform="translate(338.125,23)"/>
<path d="M0 0 C4.04420651 1.77945087 7.46078487 4.39529673 11 7 C9.125 8.0625 9.125 8.0625 7 9 C6.34 8.67 5.68 8.34 5 8 C5 7.34 5 6.68 5 6 C4.34 6 3.68 6 3 6 C3 5.34 3 4.68 3 4 C2.34 4 1.68 4 1 4 C0.67 2.68 0.34 1.36 0 0 Z " fill="#685AC1" transform="translate(289,132)"/>
<path d="M0 0 C0.99 0.33 1.98 0.66 3 1 C3.94921875 3.14453125 3.94921875 3.14453125 4.6875 5.8125 C4.93886719 6.68519531 5.19023437 7.55789062 5.44921875 8.45703125 C6 11 6 11 6 15 C5.34 15 4.68 15 4 15 C3.34 11.7 2.68 8.4 2 5 C1.34 5 0.68 5 0 5 C0 3.35 0 1.7 0 0 Z " fill="#7367CE" transform="translate(309,8)"/>
<path d="M0 0 C3.38361519 0.61728115 5.52002561 1.86979718 8.25 3.9375 C8.95640625 4.46214844 9.6628125 4.98679687 10.390625 5.52734375 C11.18726562 6.25630859 11.18726562 6.25630859 12 7 C12 7.66 12 8.32 12 9 C10.35 8.67 8.7 8.34 7 8 C7 7.34 7 6.68 7 6 C6.030625 5.566875 5.06125 5.13375 4.0625 4.6875 C1 3 1 3 0 0 Z " fill="#6559B5" transform="translate(114,271)"/>
<path d="M0 0 C1.32 0 2.64 0 4 0 C5.75 2 5.75 2 7 4 C6.67 4.66 6.34 5.32 6 6 C4.02 6 2.04 6 0 6 C-1.24546405 3.50907189 -0.7767578 2.58919267 0 0 Z " fill="#4733EB" transform="translate(258,321)"/>
<path d="M0 0 C0 0.99 0 1.98 0 3 C-1.45537568 3.83848804 -2.91440373 4.67063934 -4.375 5.5 C-5.59316406 6.19609375 -5.59316406 6.19609375 -6.8359375 6.90625 C-9 8 -9 8 -11 8 C-11 7.34 -11 6.68 -11 6 C-10.34 5.67 -9.68 5.34 -9 5 C-8.67 4.01 -8.34 3.02 -8 2 C-6.15234375 1.26953125 -6.15234375 1.26953125 -3.9375 0.8125 C-3.20402344 0.65394531 -2.47054687 0.49539063 -1.71484375 0.33203125 C-1.14894531 0.22246094 -0.58304688 0.11289062 0 0 Z " fill="#6D63BD" transform="translate(91,358)"/>
<path d="M0 0 C1.485 0.99 1.485 0.99 3 2 C3 2.66 3 3.32 3 4 C3.66 4 4.32 4 5 4 C5 5.65 5 7.3 5 9 C3.02 9.99 3.02 9.99 1 11 C1 8.16032769 1.40267181 5.76264289 2 3 C1.01 3 0.02 3 -1 3 C-0.67 2.01 -0.34 1.02 0 0 Z " fill="#5D4FD0" transform="translate(184,111)"/>
<path d="M0 0 C2 1.25 2 1.25 4 3 C4 4.32 4 5.64 4 7 C4.66 7.33 5.32 7.66 6 8 C4.6875 10 4.6875 10 3 12 C2.01 12 1.02 12 0 12 C0.5076854 9.9692584 1.00650907 7.98106451 1.6875 6 C2.09205762 3.41083122 1.33413341 2.19739621 0 0 Z " fill="#5742E7" transform="translate(145,66)"/>
<path d="M0 0 C3.84783484 3.06077771 7.14732623 5.94042579 10 10 C10 10.66 10 11.32 10 12 C10.66 12 11.32 12 12 12 C11.67 12.66 11.34 13.32 11 14 C7.31804186 11.31316568 5.30811049 8.88182219 3 5 C2.01 4.67 1.02 4.34 0 4 C0 2.68 0 1.36 0 0 Z " fill="#7D71C5" transform="translate(132,49)"/>
<path d="M0 0 C1.65 0 3.3 0 5 0 C2.81482901 2.40575607 0.74080329 3.79535581 -2.1875 5.1875 C-2.90292969 5.53167969 -3.61835938 5.87585938 -4.35546875 6.23046875 C-4.89816406 6.48441406 -5.44085938 6.73835938 -6 7 C-5.67 5.35 -5.34 3.7 -5 2 C-3.68 2 -2.36 2 -1 2 C-0.67 1.34 -0.34 0.68 0 0 Z " fill="#6A63BC" transform="translate(156,320)"/>
<path d="M0 0 C1.98 0 3.96 0 6 0 C6.66 1.98 7.32 3.96 8 6 C4.65750371 5.40312566 2.53563658 4.26396123 0 2 C0 1.34 0 0.68 0 0 Z " fill="#4835E7" transform="translate(154,305)"/>
<path d="M0 0 C4.00379374 2.97424678 6.99702939 6.05323863 10 10 C10 10.66 10 11.32 10 12 C8 12 8 12 5.875 10.1875 C4 8 4 8 4 5 C2.68 4.67 1.36 4.34 0 4 C0 2.68 0 1.36 0 0 Z " fill="#6E65B7" transform="translate(197,127)"/>
<path d="M0 0 C0 0.66 0 1.32 0 2 C-1.98 2.99 -1.98 2.99 -4 4 C-3.67 4.66 -3.34 5.32 -3 6 C-4.98 6.66 -6.96 7.32 -9 8 C-9 6.68 -9 5.36 -9 4 C-2.25 0 -2.25 0 0 0 Z " fill="#675AB9" transform="translate(62,83)"/>
<path d="M0 0 C3.67420866 0.30618405 4.78135513 0.75771784 7.3125 3.5625 C8.1478125 4.7690625 8.1478125 4.7690625 9 6 C8.67 6.66 8.34 7.32 8 8 C4.125 6.25 4.125 6.25 3 4 C2.01 3.67 1.02 3.34 0 3 C0 2.01 0 1.02 0 0 Z " fill="#4A36E7" transform="translate(330,82)"/>
<path d="M0 0 C2 1 4 2 6 3 C6 3.66 6 4.32 6 5 C6.99 5.33 7.98 5.66 9 6 C9.6875 8.0625 9.6875 8.0625 10 10 C8.7010161 9.09373216 7.41106833 8.17450463 6.125 7.25 C5.40570313 6.73953125 4.68640625 6.2290625 3.9453125 5.703125 C1.91429435 3.92496453 1.02144988 2.47298393 0 0 Z " fill="#6054B6" transform="translate(160,163)"/>
<path d="M0 0 C1.98 0.495 1.98 0.495 4 1 C4 1.66 4 2.32 4 3 C6.475 3.99 6.475 3.99 9 5 C7.1875 5.625 7.1875 5.625 5 6 C4.01 5.34 3.02 4.68 2 4 C1.67 4.99 1.34 5.98 1 7 C0.34 7 -0.32 7 -1 7 C-0.67 4.69 -0.34 2.38 0 0 Z " fill="#6C63AF" transform="translate(272,119)"/>
<path d="M0 0 C0 0.99 0 1.98 0 3 C-4.95 5.475 -4.95 5.475 -10 8 C-10.33 7.34 -10.66 6.68 -11 6 C-9.68 5.67 -8.36 5.34 -7 5 C-7 4.01 -7 3.02 -7 2 C-4.69 1.34 -2.38 0.68 0 0 Z " fill="#6D65B5" transform="translate(107,349)"/>
<path d="M0 0 C2.97 0.495 2.97 0.495 6 1 C0.85714286 5.42857143 0.85714286 5.42857143 -3 6 C-3 4.68 -3 3.36 -3 2 C-2.01 2 -1.02 2 0 2 C0 1.34 0 0.68 0 0 Z " fill="#564ABB" transform="translate(315,294)"/>
<path d="M0 0 C1.485 0.99 1.485 0.99 3 2 C3.29296875 4.6015625 3.29296875 4.6015625 3.1875 7.625 C3.16042969 8.62789062 3.13335937 9.63078125 3.10546875 10.6640625 C3.07066406 11.43492188 3.03585937 12.20578125 3 13 C0.62054735 8.24109471 -0.10095578 5.45161235 0 0 Z " fill="#6C5ED4" transform="translate(296,104)"/>
<path d="M0 0 C-0.99 0 -1.98 0 -3 0 C-3.33 0.99 -3.66 1.98 -4 3 C-5.98 3.33 -7.96 3.66 -10 4 C-10 2.68 -10 1.36 -10 0 C-6.33694766 -0.74926071 -3.57644848 -1.2380014 0 0 Z " fill="#6357C0" transform="translate(350,70)"/>
<path d="M0 0 C1.65 0.33 3.3 0.66 5 1 C1.80009492 3.74277578 -1.00499382 5.6302836 -5 7 C-5 5.68 -5 4.36 -5 3 C-3.35 3 -1.7 3 0 3 C0 2.01 0 1.02 0 0 Z " fill="#6357BB" transform="translate(64,371)"/>
<path d="M0 0 C-3.5087188 3.09592835 -6.49197399 4.74194623 -11 6 C-11 5.34 -11 4.68 -11 4 C-10.34 4 -9.68 4 -9 4 C-9 3.34 -9 2.68 -9 2 C-5.86501708 0.14223235 -3.62528568 -0.20140476 0 0 Z " fill="#6555B6" transform="translate(80,366)"/>
<path d="M0 0 C0.66 0 1.32 0 2 0 C2.33 0.66 2.66 1.32 3 2 C6.02934491 2.65772428 6.02934491 2.65772428 9 3 C9 2.34 9 1.68 9 1 C9.99 1.33 10.98 1.66 12 2 C10.35 3.32 8.7 4.64 7 6 C2.32307692 4.52307692 2.32307692 4.52307692 0.6875 1.875 C0.460625 1.25625 0.23375 0.6375 0 0 Z " fill="#5042BF" transform="translate(255,324)"/>
<path d="M0 0 C1.32 0 2.64 0 4 0 C4 1.65 4 3.3 4 5 C2.35 5.33 0.7 5.66 -1 6 C-0.67 4.02 -0.34 2.04 0 0 Z " fill="#442FE3" transform="translate(163,311)"/>
<path d="M0 0 C0.99 0 1.98 0 3 0 C6.34821429 6.96428571 6.34821429 6.96428571 5 11 C4.15841464 9.73461631 3.32700252 8.46246221 2.5 7.1875 C1.80390625 6.12595703 1.80390625 6.12595703 1.09375 5.04296875 C0 3 0 3 0 0 Z " fill="#6B5EC6" transform="translate(186,236)"/>
<path d="M0 0 C6.4 -0.49230769 6.4 -0.49230769 9.4375 2 C10.2109375 2.99 10.2109375 2.99 11 4 C10.67 4.66 10.34 5.32 10 6 C9.278125 5.525625 8.55625 5.05125 7.8125 4.5625 C5.10524774 3.05847097 3.03805725 2.43400818 0 2 C0 1.34 0 0.68 0 0 Z " fill="#7065C1" transform="translate(212,203)"/>
<path d="M0 0 C0 0.99 0 1.98 0 3 C-2.31 4.32 -4.62 5.64 -7 7 C-6.67 5.35 -6.34 3.7 -6 2 C-4.02 1.34 -2.04 0.68 0 0 Z " fill="#6F61C0" transform="translate(283,91)"/>
<path d="M0 0 C-1.65 0.66 -3.3 1.32 -5 2 C-3.35 4.64 -1.7 7.28 0 10 C-4.18837725 7.90581137 -5.02950186 7.0395212 -7 3 C-7 2.01 -7 1.02 -7 0 C-3.86650268 -1.04449911 -3.01031744 -0.93423645 0 0 Z " fill="#625AAB" transform="translate(338,75)"/>
<path d="M0 0 C2.52480693 2.52480693 2.55738633 4.13823034 3.125 7.625 C3.29257813 8.62789062 3.46015625 9.63078125 3.6328125 10.6640625 C3.75398437 11.43492187 3.87515625 12.20578125 4 13 C3.34 12.67 2.68 12.34 2 12 C1.5859375 9.93359375 1.5859375 9.93359375 1.375 7.4375 C1.30023438 6.61121094 1.22546875 5.78492188 1.1484375 4.93359375 C1.09945312 4.29550781 1.05046875 3.65742188 1 3 C0.01 3.33 -0.98 3.66 -2 4 C-2 3.01 -2 2.02 -2 1 C-1.34 0.67 -0.68 0.34 0 0 Z " fill="#7267D6" transform="translate(207,140)"/>
<path d="M0 0 C2.375 0.25 2.375 0.25 5 1 C6.3125 3.0625 6.3125 3.0625 7 5 C7.66 5 8.32 5 9 5 C8.67 5.99 8.34 6.98 8 8 C6.66102417 7.04956626 5.32894573 6.08940853 4 5.125 C3.2575 4.59132812 2.515 4.05765625 1.75 3.5078125 C1.1725 3.01023438 0.595 2.51265625 0 2 C0 1.34 0 0.68 0 0 Z " fill="#7268BB" transform="translate(125,137)"/>
<path d="M0 0 C0.66 0.33 1.32 0.66 2 1 C-0.23407889 4.35111834 -1.26215824 5.81553956 -5.25 6.8125 C-6.61125 6.9053125 -6.61125 6.9053125 -8 7 C-6.88424427 3.65273281 -6.48655378 3.37920252 -3.5625 1.75 C-2.386875 1.1725 -1.21125 0.595 0 0 Z " fill="#7E76C6" transform="translate(326,30)"/>
<path d="M0 0 C0.66 0 1.32 0 2 0 C2.185625 1.2065625 2.185625 1.2065625 2.375 2.4375 C2.58125 3.283125 2.7875 4.12875 3 5 C3.66 5.33 4.32 5.66 5 6 C5 7.98 5 9.96 5 12 C2.13546142 8.58983503 0.65296434 5.09305456 -1 1 C-0.67 0.67 -0.34 0.34 0 0 Z " fill="#7D6ACB" transform="translate(175,214)"/>
<path d="M0 0 C0 0.99 0 1.98 0 3 C-0.99 3 -1.98 3 -3 3 C-3.12375 3.639375 -3.2475 4.27875 -3.375 4.9375 C-3.58125 5.618125 -3.7875 6.29875 -4 7 C-4.99 7.495 -4.99 7.495 -6 8 C-6.33 6.68 -6.66 5.36 -7 4 C-2.25 0 -2.25 0 0 0 Z " fill="#675BCA" transform="translate(327,127)"/>
<path d="M0 0 C0.99 0 1.98 0 3 0 C3 1.32 3 2.64 3 4 C3.66 4 4.32 4 5 4 C5.33 6.31 5.66 8.62 6 11 C0 3.28571429 0 3.28571429 0 0 Z " fill="#7B6EC9" transform="translate(168,203)"/>
<path d="M0 0 C8.57142857 -0.28571429 8.57142857 -0.28571429 12 2 C4.61538462 3.35384615 4.61538462 3.35384615 1.5 1.5625 C1.005 1.046875 0.51 0.53125 0 0 Z " fill="#514699" transform="translate(183,197)"/>
<path d="M0 0 C2.31 0.33 4.62 0.66 7 1 C7.33 2.32 7.66 3.64 8 5 C5 5 5 5 2.3125 2.5 C1.549375 1.675 0.78625 0.85 0 0 Z " fill="#6356BE" transform="translate(117,131)"/>
<path d="M0 0 C2.33944736 0.28730055 4.6739143 0.61936779 7 1 C4.35261084 2.4606285 3.10551666 3 0 3 C0.66 4.65 1.32 6.3 2 8 C1.01 7.67 0.02 7.34 -1 7 C-1.04254356 5.00045254 -1.04080783 2.99958364 -1 1 C-0.67 0.67 -0.34 0.34 0 0 Z " fill="#5848DB" transform="translate(331,72)"/>
<path d="M0 0 C0 0.99 0 1.98 0 3 C-1.4800841 2.88637738 -2.95910074 2.75877092 -4.4375 2.625 C-5.26121094 2.55539063 -6.08492188 2.48578125 -6.93359375 2.4140625 C-7.61550781 2.27742188 -8.29742187 2.14078125 -9 2 C-9.33 1.34 -9.66 0.68 -10 0 C-6.30581799 -1.231394 -3.7943739 -0.64432764 0 0 Z " fill="#5045AE" transform="translate(363,55)"/>
<path d="M0 0 C0.99 0.66 1.98 1.32 3 2 C3 2.66 3 3.32 3 4 C3.66 4.33 4.32 4.66 5 5 C4.34 5.66 3.68 6.32 3 7 C2.67 6.01 2.34 5.02 2 4 C-0.97 3.505 -0.97 3.505 -4 3 C-2.68 2.01 -1.36 1.02 0 0 Z " fill="#5D50A7" transform="translate(128,44)"/>
<path d="M0 0 C0.99 0.33 1.98 0.66 3 1 C2.67 1.66 2.34 2.32 2 3 C1.67 3 1.34 3 1 3 C1 5.31 1 7.62 1 10 C-1 8.1875 -1 8.1875 -3 6 C-3 3 -3 3 -1.5 1.3125 C-0.7575 0.6628125 -0.7575 0.6628125 0 0 Z " fill="#7365D6" transform="translate(271,29)"/>
<path d="M0 0 C1.32 0.33 2.64 0.66 4 1 C1.47211993 3.79872437 -0.20411134 5.45773019 -4 6 C-4 5.01 -4 4.02 -4 3 C-2.68 3 -1.36 3 0 3 C0 2.01 0 1.02 0 0 Z " fill="#5E53BE" transform="translate(292,308)"/>
<path d="M0 0 C2.4375 0.75 2.4375 0.75 5 2 C5.8125 4.125 5.8125 4.125 6 6 C2 6 2 6 0.25 4.5 C-0.1625 4.005 -0.575 3.51 -1 3 C-0.67 2.01 -0.34 1.02 0 0 Z " fill="#574BC2" transform="translate(152,299)"/>
<path d="M0 0 C3.43595166 1.52708963 6.11912454 3.59927045 9 6 C8.67 6.66 8.34 7.32 8 8 C3.82988994 6.05394864 1.94605136 4.17011006 0 0 Z " fill="#756DBB" transform="translate(250,231)"/>
<path d="M0 0 C0 1.32 0 2.64 0 4 C0.99 3.67 1.98 3.34 3 3 C3.66 3.33 4.32 3.66 5 4 C5 4.66 5 5.32 5 6 C2.03 5.505 2.03 5.505 -1 5 C-1 4.34 -1 3.68 -1 3 C-2.32 2.34 -3.64 1.68 -5 1 C-2 0 -2 0 0 0 Z " fill="#4834E1" transform="translate(186,178)"/>
<path d="M0 0 C1.32 0.66 2.64 1.32 4 2 C4 2.66 4 3.32 4 4 C4.99 4.33 5.98 4.66 7 5 C6.34 5.66 5.68 6.32 5 7 C3.02 5.35 1.04 3.7 -1 2 C-0.67 1.34 -0.34 0.68 0 0 Z " fill="#6A5EBD" transform="translate(140,147)"/>
<path d="M0 0 C0.33 0.99 0.66 1.98 1 3 C0.34 3 -0.32 3 -1 3 C-1 7.29 -1 11.58 -1 16 C-1.33 16 -1.66 16 -2 16 C-2.33 11.38 -2.66 6.76 -3 2 C-2.01 1.34 -1.02 0.68 0 0 Z " fill="#5A49C1" transform="translate(52,88)"/>
<path d="M0 0 C2.64 0.33 5.28 0.66 8 1 C8.33 1.99 8.66 2.98 9 4 C4.545 3.01 4.545 3.01 0 2 C0 1.34 0 0.68 0 0 Z " fill="#7268B7" transform="translate(250,67)"/>
<path d="M0 0 C1.66666667 0.66666667 3.33333333 1.33333333 5 2 C6.36125 2.495 6.36125 2.495 7.75 3 C10 4 10 4 11 6 C6.64477147 5.49357808 3.55760365 4.61588503 0 2 C0 1.34 0 0.68 0 0 Z " fill="#675DAC" transform="translate(281,30)"/>
<path d="M0 0 C0.99 0 1.98 0 3 0 C3.99 2.97 4.98 5.94 6 9 C5.34 9 4.68 9 4 9 C2.68 6.03 1.36 3.06 0 0 Z " fill="#7C6ECB" transform="translate(180,226)"/>
<path d="M0 0 C2.56616632 3.84924948 2.55097676 6.4349304 3 11 C2.01 10.34 1.02 9.68 0 9 C-0.29296875 6.8359375 -0.29296875 6.8359375 -0.1875 4.375 C-0.16042969 3.55773437 -0.13335937 2.74046875 -0.10546875 1.8984375 C-0.05326172 0.95871094 -0.05326172 0.95871094 0 0 Z " fill="#7A6CD9" transform="translate(213,163)"/>
<path d="M0 0 C0.99 0 1.98 0 3 0 C3 3.63 3 7.26 3 11 C2.67 11 2.34 11 2 11 C0.80712589 7.12315913 0 4.08378077 0 0 Z " fill="#776AD3" transform="translate(292,93)"/>
<path d="M0 0 C1.32 0 2.64 0 4 0 C4 0.66 4 1.32 4 2 C4.99 2.33 5.98 2.66 7 3 C7 3.66 7 4.32 7 5 C5.35 4.67 3.7 4.34 2 4 C2 3.34 2 2.68 2 2 C1.34 2 0.68 2 0 2 C0 1.34 0 0.68 0 0 Z " fill="#6154B7" transform="translate(144,294)"/>
<path d="M0 0 C1.32 0 2.64 0 4 0 C3.64950425 3.24208567 3.43778819 4.61527704 0.9375 6.8125 C0.298125 7.204375 -0.34125 7.59625 -1 8 C-0.649375 7.236875 -0.29875 6.47375 0.0625 5.6875 C1.32360884 2.95240621 1.32360884 2.95240621 0 0 Z " fill="#746AB7" transform="translate(275,74)"/>
<path d="M0 0 C2.97 0.495 2.97 0.495 6 1 C4.62308038 3.75383923 2.63279958 4.51483101 0 6 C0 4.02 0 2.04 0 0 Z " fill="#5F4AEA" transform="translate(124,47)"/>
<path d="M0 0 C1.6415049 3.2830098 0.51888624 6.42545033 0 10 C-0.99 10.33 -1.98 10.66 -3 11 C-2.69217504 9.35328588 -2.37860766 7.70764424 -2.0625 6.0625 C-1.88847656 5.14597656 -1.71445312 4.22945312 -1.53515625 3.28515625 C-1 1 -1 1 0 0 Z " fill="#857CCC" transform="translate(295,19)"/>
<path d="M0 0 C1.98 0 3.96 0 6 0 C5.67 0.99 5.34 1.98 5 3 C3.68 3 2.36 3 1 3 C0.67 3.99 0.34 4.98 0 6 C0 4.02 0 2.04 0 0 Z " fill="#4F42AE" transform="translate(246,55)"/>
<path d="M0 0 C0.99 0.33 1.98 0.66 3 1 C2.67 1.66 2.34 2.32 2 3 C1.34 3 0.68 3 0 3 C-0.33 3.99 -0.66 4.98 -1 6 C-1.66 6 -2.32 6 -3 6 C-2.42655063 3.13275314 -2.1385485 2.1385485 0 0 Z " fill="#533EEB" transform="translate(271,26)"/>
<path d="M0 0 C3.3 0.33 6.6 0.66 10 1 C7 3 7 3 3 3 C3 2.34 3 1.68 3 1 C2.01 0.67 1.02 0.34 0 0 Z " fill="#514699" transform="translate(196,199)"/>
<path d="M0 0 C1.32 0.33 2.64 0.66 4 1 C3.34 2.32 2.68 3.64 2 5 C1.34 5 0.68 5 0 5 C0 3.35 0 1.7 0 0 Z " fill="#5B43F2" transform="translate(51,91)"/>
<path d="M0 0 C1.24546405 2.49092811 0.7767578 3.41080733 0 6 C-0.99 6 -1.98 6 -3 6 C-3.33 6.99 -3.66 7.98 -4 9 C-4.33 8.34 -4.66 7.68 -5 7 C-3.35 4.69 -1.7 2.38 0 0 Z " fill="#776DBC" transform="translate(273,82)"/>
<path d="M0 0 C0.66 0 1.32 0 2 0 C2 2.64 2 5.28 2 8 C1.34 8 0.68 8 0 8 C-0.79953138 4.71303767 -1.09658936 3.28976808 0 0 Z " fill="#4A3ADA" transform="translate(361,58)"/>
<path d="M0 0 C0 2.31 0 4.62 0 7 C-0.66 7 -1.32 7 -2 7 C-2.33 6.01 -2.66 5.02 -3 4 C-3.66 3.34 -4.32 2.68 -5 2 C-1.125 0 -1.125 0 0 0 Z " fill="#5545BD" transform="translate(124,47)"/>
<path d="" fill="#919191" transform="translate(0,0)"/>
<path d="" fill="#919191" transform="translate(0,0)"/>
<path d="" fill="#919191" transform="translate(0,0)"/>
<path d="" fill="#919191" transform="translate(0,0)"/>
<path d="" fill="#919191" transform="translate(0,0)"/>
<path d="" fill="#919191" transform="translate(0,0)"/>
<path d="" fill="#919191" transform="translate(0,0)"/>
<path d="" fill="#919191" transform="translate(0,0)"/>
<path d="" fill="#919191" transform="translate(0,0)"/>
<path d="" fill="#919191" transform="translate(0,0)"/>
<path d="" fill="#919191" transform="translate(0,0)"/>
<path d="" fill="#919191" transform="translate(0,0)"/>
<path d="" fill="#919191" transform="translate(0,0)"/>
<path d="" fill="#919191" transform="translate(0,0)"/>
<path d="" fill="#919191" transform="translate(0,0)"/>
<path d="" fill="#919191" transform="translate(0,0)"/>
<path d="" fill="#919191" transform="translate(0,0)"/>
<path d="" fill="#919191" transform="translate(0,0)"/>
<path d="" fill="#919191" transform="translate(0,0)"/>
<path d="" fill="#919191" transform="translate(0,0)"/>
<path d="" fill="#919191" transform="translate(0,0)"/>
<path d="" fill="#919191" transform="translate(0,0)"/>
<path d="" fill="#919191" transform="translate(0,0)"/>
<path d="" fill="#919191" transform="translate(0,0)"/>
<path d="" fill="#919191" transform="translate(0,0)"/>
<path d="" fill="#919191" transform="translate(0,0)"/>
<path d="" fill="#919191" transform="translate(0,0)"/>
<path d="" fill="#919191" transform="translate(0,0)"/>
<path d="" fill="#919191" transform="translate(0,0)"/>
<path d="" fill="#919191" transform="translate(0,0)"/>
</svg>
